<?xml version="1.0" encoding="UTF-8" standalone="no"?>
<svg
   xmlns:osb="http://www.openswatchbook.org/uri/2009/osb"
   xmlns:dc="http://purl.org/dc/elements/1.1/"
   xmlns:cc="http://creativecommons.org/ns#"
   xmlns:rdf="http://www.w3.org/1999/02/22-rdf-syntax-ns#"
   xmlns:svg="http://www.w3.org/2000/svg"
   xmlns="http://www.w3.org/2000/svg"
   xmlns:sodipodi="http://sodipodi.sourceforge.net/DTD/sodipodi-0.dtd"
   xmlns:inkscape="http://www.inkscape.org/namespaces/inkscape"
   class="svglite"
   width="124.44pt"
   height="144.00pt"
   viewBox="0 0 124.44 144.00"
   version="1.1"
   id="svg114"
   sodipodi:docname="logo.svg"
   inkscape:version="1.0.1 (3bc2e813f5, 2020-09-07)"
   inkscape:export-filename="D:\11_Coding\R\nflreadr\data-raw\logo_alt.png"
   inkscape:export-xdpi="600"
   inkscape:export-ydpi="600">
  <metadata
     id="metadata118">
    <rdf:RDF>
      <cc:Work
         rdf:about="">
        <dc:format>image/svg+xml</dc:format>
        <dc:type
           rdf:resource="http://purl.org/dc/dcmitype/StillImage" />
      </cc:Work>
    </rdf:RDF>
  </metadata>
  <sodipodi:namedview
     pagecolor="#ffffff"
     bordercolor="#666666"
     borderopacity="1"
     objecttolerance="10"
     gridtolerance="10"
     guidetolerance="10"
     inkscape:pageopacity="0"
     inkscape:pageshadow="2"
     inkscape:window-width="1920"
     inkscape:window-height="1017"
     id="namedview116"
     showgrid="false"
     inkscape:zoom="2.5729167"
     inkscape:cx="31.696038"
     inkscape:cy="101.82978"
     inkscape:window-x="-8"
     inkscape:window-y="-8"
     inkscape:window-maximized="1"
     inkscape:current-layer="text1472-7-2-2-3-1-0"
     inkscape:document-rotation="0" />
  <defs
     id="defs4">
    <rect
       x="149.82996"
       y="-36.145749"
       width="414.51012"
       height="341.05263"
       id="rect3500" />
    <rect
       x="570.75303"
       y="306.65587"
       width="420.34008"
       height="327.64372"
       id="rect2460" />
    <rect
       x="565.50607"
       y="297.91093"
       width="421.50607"
       height="353.87854"
       id="rect2454" />
    <rect
       x="136.42105"
       y="-48.97166"
       width="366.30882"
       height="229.40097"
       id="rect2448" />
    <marker
       style="overflow:visible"
       id="TriangleOutL"
       refX="0.0"
       refY="0.0"
       orient="auto"
       inkscape:stockid="TriangleOutL"
       inkscape:isstock="true">
      <path
         transform="scale(0.8)"
         style="fill-rule:evenodd;stroke:#e8eaed;stroke-width:1pt;stroke-opacity:1;fill:#e8eaed;fill-opacity:1"
         d="M 5.77,0.0 L -2.88,5.0 L -2.88,-5.0 L 5.77,0.0 z "
         id="path1132" />
    </marker>
    <marker
       style="overflow:visible;"
       id="Arrow2Mend"
       refX="0.0"
       refY="0.0"
       orient="auto"
       inkscape:stockid="Arrow2Mend"
       inkscape:isstock="true">
      <path
         transform="scale(0.6) rotate(180) translate(0,0)"
         d="M 8.7185878,4.0337352 L -2.2072895,0.016013256 L 8.7185884,-4.0017078 C 6.9730900,-1.6296469 6.9831476,1.6157441 8.7185878,4.0337352 z "
         style="fill-rule:evenodd;stroke-width:0.625;stroke-linejoin:round;stroke:#000000;stroke-opacity:1"
         id="path1017" />
    </marker>
    <marker
       style="overflow:visible"
       id="Tail"
       refX="0.0"
       refY="0.0"
       orient="auto"
       inkscape:stockid="Tail"
       inkscape:isstock="true">
      <g
         transform="scale(-1.2)"
         id="g1038"
         style="stroke:#000000;stroke-opacity:1;fill:#000000;fill-opacity:1">
        <path
           style="fill:#000000;fill-rule:evenodd;stroke:#000000;stroke-width:0.8;stroke-linecap:round;stroke-opacity:1;fill-opacity:1"
           d="M -3.8048674,-3.9585227 L 0.54352094,0"
           id="path1026" />
        <path
           style="fill:#000000;fill-rule:evenodd;stroke:#000000;stroke-width:0.8;stroke-linecap:round;stroke-opacity:1;fill-opacity:1"
           d="M -1.2866832,-3.9585227 L 3.0617053,0"
           id="path1028" />
        <path
           style="fill:#000000;fill-rule:evenodd;stroke:#000000;stroke-width:0.8;stroke-linecap:round;stroke-opacity:1;fill-opacity:1"
           d="M 1.3053582,-3.9585227 L 5.6537466,0"
           id="path1030" />
        <path
           style="fill:#000000;fill-rule:evenodd;stroke:#000000;stroke-width:0.8;stroke-linecap:round;stroke-opacity:1;fill-opacity:1"
           d="M -3.8048674,4.1775838 L 0.54352094,0.21974226"
           id="path1032" />
        <path
           style="fill:#000000;fill-rule:evenodd;stroke:#000000;stroke-width:0.8;stroke-linecap:round;stroke-opacity:1;fill-opacity:1"
           d="M -1.2866832,4.1775838 L 3.0617053,0.21974226"
           id="path1034" />
        <path
           style="fill:#000000;fill-rule:evenodd;stroke:#000000;stroke-width:0.8;stroke-linecap:round;stroke-opacity:1;fill-opacity:1"
           d="M 1.3053582,4.1775838 L 5.6537466,0.21974226"
           id="path1036" />
      </g>
    </marker>
    <marker
       style="overflow:visible;"
       id="marker1448"
       refX="0.0"
       refY="0.0"
       orient="auto"
       inkscape:stockid="Arrow2Lend"
       inkscape:isstock="true">
      <path
         transform="scale(1.1) rotate(180) translate(1,0)"
         d="M 8.7185878,4.0337352 L -2.2072895,0.016013256 L 8.7185884,-4.0017078 C 6.9730900,-1.6296469 6.9831476,1.6157441 8.7185878,4.0337352 z "
         style="fill-rule:evenodd;stroke-width:0.625;stroke-linejoin:round;stroke:#000000;stroke-opacity:1"
         id="path1446" />
    </marker>
    <marker
       style="overflow:visible;"
       id="Arrow2Lend"
       refX="0.0"
       refY="0.0"
       orient="auto"
       inkscape:stockid="Arrow2Lend"
       inkscape:isstock="true">
      <path
         transform="scale(1.1) rotate(180) translate(1,0)"
         d="M 8.7185878,4.0337352 L -2.2072895,0.016013256 L 8.7185884,-4.0017078 C 6.9730900,-1.6296469 6.9831476,1.6157441 8.7185878,4.0337352 z "
         style="fill-rule:evenodd;stroke-width:0.625;stroke-linejoin:round;stroke:#000000;stroke-opacity:1"
         id="path1011" />
    </marker>
    <linearGradient
       id="linearGradient1396"
       osb:paint="solid">
      <stop
         style="stop-color:#ffffff;stop-opacity:1;"
         offset="0"
         id="stop1394" />
    </linearGradient>
    <marker
       style="overflow:visible"
       id="EmptyTriangleOutL"
       refX="0.0"
       refY="0.0"
       orient="auto"
       inkscape:stockid="EmptyTriangleOutL"
       inkscape:isstock="true">
      <path
         transform="scale(0.8) translate(-6,0)"
         style="fill-rule:evenodd;fill:#ffffff;stroke:#000000;stroke-width:1pt;stroke-opacity:1;fill-opacity:1"
         d="M 5.77,0.0 L -2.88,5.0 L -2.88,-5.0 L 5.77,0.0 z "
         id="path1150" />
    </marker>
    <style
       type="text/css"
       id="style2"><![CDATA[
    .svglite line, .svglite polyline, .svglite polygon, .svglite path, .svglite rect, .svglite circle {
      fill: none;
      stroke: #000000;
      stroke-linecap: round;
      stroke-linejoin: round;
      stroke-miterlimit: 10.00;
    }
  ]]></style>
    <linearGradient
       id="linearGradient10949"
       y2="278.81"
       gradientUnits="userSpaceOnUse"
       x2="509.9"
       gradientTransform="matrix(0.93679,-0.85929,0.85927,0.93681,-400.21,462.79)"
       y1="544.75"
       x1="509.97">
      <stop
         id="stop10876"
         style="stop-color:#3c1a0f"
         offset="0" />
      <stop
         id="stop10878"
         style="stop-color:#d7bbb3"
         offset="1" />
    </linearGradient>
    <linearGradient
       id="linearGradient10954"
       y2="353.8"
       gradientUnits="userSpaceOnUse"
       x2="498.75"
       gradientTransform="matrix(.93679 -.85929 .85927 .93681 -400.21 462.79)"
       y1="750.29"
       x1="498.75">
      <stop
         id="stop10854"
         style="stop-color:#391b0f"
         offset="0" />
      <stop
         id="stop10856"
         style="stop-color:#5b2318"
         offset=".10989" />
      <stop
         id="stop10858"
         style="stop-color:#5b2318"
         offset=".27473" />
      <stop
         id="stop10860"
         style="stop-color:#905036"
         offset="1" />
    </linearGradient>
    <clipPath
       id="cpMC4wMHwxMjQuNDR8MC4xNHwxNDMuODY=-3">
      <rect
         x="0"
         y="0.14"
         width="124.44"
         height="143.71001"
         id="rect15-8" />
    </clipPath>
    <clipPath
       id="cpMC4wMHwxMjQuNDR8MC4xNHwxNDQuMDA=-8">
      <rect
         x="0"
         y="0.14"
         width="124.44"
         height="143.85001"
         id="rect26-0" />
    </clipPath>
    <clipPath
       id="clipPath1240">
      <rect
         x="0"
         y="0.14"
         width="124.44"
         height="143.85001"
         id="rect1238" />
    </clipPath>
    <marker
       style="overflow:visible"
       id="TriangleOutL-8"
       refX="0"
       refY="0"
       orient="auto"
       inkscape:stockid="TriangleOutL"
       inkscape:isstock="true">
      <path
         transform="scale(0.8)"
         style="fill:#e8eaed;fill-opacity:1;fill-rule:evenodd;stroke:#e8eaed;stroke-width:1pt;stroke-opacity:1"
         d="M 5.77,0 -2.88,5 V -5 Z"
         id="path1132-7" />
    </marker>
    <clipPath
       id="cpMC4wMHwxMjQuNDR8MC4xNHwxNDMuODY=-3-3">
      <rect
         x="0"
         y="0.14"
         width="124.44"
         height="143.71001"
         id="rect15-8-2" />
    </clipPath>
    <clipPath
       id="cpMC4wMHwxMjQuNDR8MC4xNHwxNDQuMDA=-8-2">
      <rect
         x="0"
         y="0.14"
         width="124.44"
         height="143.85001"
         id="rect26-0-0" />
    </clipPath>
    <clipPath
       id="clipPath1512">
      <rect
         x="0"
         y="0.14"
         width="124.44"
         height="143.85001"
         id="rect1510" />
    </clipPath>
    <marker
       style="overflow:visible"
       id="TriangleOutL-8-3"
       refX="0"
       refY="0"
       orient="auto"
       inkscape:stockid="TriangleOutL"
       inkscape:isstock="true">
      <path
         transform="scale(0.8)"
         style="fill:#e8eaed;fill-opacity:1;fill-rule:evenodd;stroke:#e8eaed;stroke-width:1pt;stroke-opacity:1"
         d="M 5.77,0 -2.88,5 V -5 Z"
         id="path1132-7-9" />
    </marker>
    <clipPath
       id="cpMC4wMHwxMjQuNDR8MC4xNHwxNDMuODY=-3-3-4">
      <rect
         x="0"
         y="0.14"
         width="124.44"
         height="143.71001"
         id="rect15-8-2-0" />
    </clipPath>
    <clipPath
       id="cpMC4wMHwxMjQuNDR8MC4xNHwxNDQuMDA=-8-2-1">
      <rect
         x="0"
         y="0.14"
         width="124.44"
         height="143.85001"
         id="rect26-0-0-3" />
    </clipPath>
    <clipPath
       id="clipPath1752">
      <rect
         x="0"
         y="0.14"
         width="124.44"
         height="143.85001"
         id="rect1750" />
    </clipPath>
    <marker
       style="overflow:visible"
       id="TriangleOutL-8-3-7"
       refX="0"
       refY="0"
       orient="auto"
       inkscape:stockid="TriangleOutL"
       inkscape:isstock="true">
      <path
         transform="scale(0.8)"
         style="fill:#e8eaed;fill-opacity:1;fill-rule:evenodd;stroke:#e8eaed;stroke-width:1pt;stroke-opacity:1"
         d="M 5.77,0 -2.88,5 V -5 Z"
         id="path1132-7-9-3" />
    </marker>
    <clipPath
       id="cpMC4wMHwxMjQuNDR8MC4xNHwxNDMuODY=-3-3-4-1">
      <rect
         x="0"
         y="0.14"
         width="124.44"
         height="143.71001"
         id="rect15-8-2-0-3" />
    </clipPath>
    <clipPath
       id="cpMC4wMHwxMjQuNDR8MC4xNHwxNDQuMDA=-8-2-1-7">
      <rect
         x="0"
         y="0.14"
         width="124.44"
         height="143.85001"
         id="rect26-0-0-3-3" />
    </clipPath>
    <clipPath
       id="clipPath2000">
      <rect
         x="0"
         y="0.14"
         width="124.44"
         height="143.85001"
         id="rect1998" />
    </clipPath>
    <marker
       style="overflow:visible"
       id="TriangleOutL-8-3-7-1"
       refX="0"
       refY="0"
       orient="auto"
       inkscape:stockid="TriangleOutL"
       inkscape:isstock="true">
      <path
         transform="scale(0.8)"
         style="fill:#e8eaed;fill-opacity:1;fill-rule:evenodd;stroke:#e8eaed;stroke-width:1pt;stroke-opacity:1"
         d="M 5.77,0 -2.88,5 V -5 Z"
         id="path1132-7-9-3-3" />
    </marker>
    <clipPath
       id="cpMC4wMHwxMjQuNDR8MC4xNHwxNDMuODY=-3-3-4-6">
      <rect
         x="0"
         y="0.14"
         width="124.44"
         height="143.71001"
         id="rect15-8-2-0-4" />
    </clipPath>
    <clipPath
       id="cpMC4wMHwxMjQuNDR8MC4xNHwxNDQuMDA=-8-2-1-4">
      <rect
         x="0"
         y="0.14"
         width="124.44"
         height="143.85001"
         id="rect26-0-0-3-1" />
    </clipPath>
    <clipPath
       id="clipPath2000-9">
      <rect
         x="0"
         y="0.14"
         width="124.44"
         height="143.85001"
         id="rect1998-7" />
    </clipPath>
    <marker
       style="overflow:visible"
       id="TriangleOutL-8-3-7-2"
       refX="0"
       refY="0"
       orient="auto"
       inkscape:stockid="TriangleOutL"
       inkscape:isstock="true">
      <path
         transform="scale(0.8)"
         style="fill:#e8eaed;fill-opacity:1;fill-rule:evenodd;stroke:#e8eaed;stroke-width:1pt;stroke-opacity:1"
         d="M 5.77,0 -2.88,5 V -5 Z"
         id="path1132-7-9-3-6" />
    </marker>
    <clipPath
       id="cpMC4wMHwxMjQuNDR8MC4xNHwxNDMuODY=-3-3-4-6-6">
      <rect
         x="0"
         y="0.14"
         width="124.44"
         height="143.71001"
         id="rect15-8-2-0-4-2" />
    </clipPath>
    <clipPath
       id="cpMC4wMHwxMjQuNDR8MC4xNHwxNDQuMDA=-8-2-1-4-1">
      <rect
         x="0"
         y="0.14"
         width="124.44"
         height="143.85001"
         id="rect26-0-0-3-1-5" />
    </clipPath>
    <clipPath
       id="clipPath2490">
      <rect
         x="0"
         y="0.14"
         width="124.44"
         height="143.85001"
         id="rect2488" />
    </clipPath>
    <marker
       style="overflow:visible"
       id="TriangleOutL-8-3-7-2-6"
       refX="0"
       refY="0"
       orient="auto"
       inkscape:stockid="TriangleOutL"
       inkscape:isstock="true">
      <path
         transform="scale(0.8)"
         style="fill:#e8eaed;fill-opacity:1;fill-rule:evenodd;stroke:#e8eaed;stroke-width:1pt;stroke-opacity:1"
         d="M 5.77,0 -2.88,5 V -5 Z"
         id="path1132-7-9-3-6-5" />
    </marker>
    <clipPath
       id="cpMC4wMHwxMjQuNDR8MC4xNHwxNDMuODY=-3-3-4-6-6-6">
      <rect
         x="0"
         y="0.14"
         width="124.44"
         height="143.71001"
         id="rect15-8-2-0-4-2-3" />
    </clipPath>
    <clipPath
       id="cpMC4wMHwxMjQuNDR8MC4xNHwxNDQuMDA=-8-2-1-4-1-2">
      <rect
         x="0"
         y="0.14"
         width="124.44"
         height="143.85001"
         id="rect26-0-0-3-1-5-9" />
    </clipPath>
    <clipPath
       id="clipPath3178">
      <rect
         x="0"
         y="0.14"
         width="124.44"
         height="143.85001"
         id="rect3176" />
    </clipPath>
    <marker
       style="overflow:visible"
       id="TriangleOutL-8-3-7-2-6-6"
       refX="0"
       refY="0"
       orient="auto"
       inkscape:stockid="TriangleOutL"
       inkscape:isstock="true">
      <path
         transform="scale(0.8)"
         style="fill:#e8eaed;fill-opacity:1;fill-rule:evenodd;stroke:#e8eaed;stroke-width:1pt;stroke-opacity:1"
         d="M 5.77,0 -2.88,5 V -5 Z"
         id="path1132-7-9-3-6-5-3" />
    </marker>
  </defs>
  <rect
     width="100%"
     height="100%"
     style="stroke: none; fill: none;"
     id="rect6" />
  <defs
     id="defs11">
    <clipPath
       id="cpMC4wMHwxMjQuNDR8MC4wMHwxNDQuMDA=">
      <rect
         x="0.00"
         y="0.00"
         width="124.44"
         height="144.00"
         id="rect8" />
    </clipPath>
  </defs>
  <g
     clip-path="url(#cpMC4wMHwxMjQuNDR8MC4wMHwxNDQuMDA=)"
     id="g13" />
  <defs
     id="defs18">
    <clipPath
       id="cpMC4wMHwxMjQuNDR8MC4xNHwxNDMuODY=">
      <rect
         x="0.00"
         y="0.14"
         width="124.44"
         height="143.71"
         id="rect15" />
    </clipPath>
  </defs>
  <g
     clip-path="url(#cpMC4wMHwxMjQuNDR8MC4xNHwxNDMuODY=)"
     id="g22">
    <rect
       x="0.00"
       y="0.14"
       width="124.44"
       height="143.71"
       style="stroke-width: 1.07; stroke: none;"
       id="rect20" />
  </g>
  <g
     clip-path="url(#cpMC4wMHwxMjQuNDR8MC4wMHwxNDQuMDA=)"
     id="g24" />
  <defs
     id="defs29">
    <clipPath
       id="cpMC4wMHwxMjQuNDR8MC4xNHwxNDQuMDA=">
      <rect
         x="0.00"
         y="0.14"
         width="124.44"
         height="143.85"
         id="rect26" />
    </clipPath>
  </defs>
  <g
     clip-path="url(#cpMC4wMHwxMjQuNDR8MC4xNHwxNDQuMDA=)"
     id="g35">
    <rect
       x="-0.14"
       y="0.14"
       width="124.58"
       height="143.85"
       style="stroke-width: 1.07; stroke: none;"
       id="rect31" />
    <polygon
       points="1.08,36.81 1.08,107.33 62.15,142.59 123.22,107.33 123.22,36.81 62.15,1.55 1.08,36.81 "
       style="stroke-width: 1.71; stroke: none; fill: #303134;"
       id="polygon33" />
  </g>
  <defs
     id="defs40">
    <clipPath
       id="cpOS4yNnwxMTUuMDR8MzUuMDV8ODcuOTQ=">
      <rect
         x="9.26"
         y="35.05"
         width="105.78"
         height="52.89"
         id="rect37" />
    </clipPath>
  </defs>
  <g
     clip-path="url(#cpOS4yNnwxMTUuMDR8MzUuMDV8ODcuOTQ=)"
     id="g42" />
  <g
     clip-path="url(#cpMC4wMHwxMjQuNDR8MC4xNHwxNDQuMDA=)"
     id="g44" />
  <g
     clip-path="url(#cpMC4wMHwxMjQuNDR8MC4wMHwxNDQuMDA=)"
     id="g46" />
  <g
     clip-path="url(#cpMC4wMHwxMjQuNDR8MC4xNHwxNDQuMDA=)"
     id="g48" />
  <g
     clip-path="url(#cpMC4wMHwxMjQuNDR8MC4wMHwxNDQuMDA=)"
     id="g50" />
  <g
     clip-path="url(#cpMC4wMHwxMjQuNDR8MC4xNHwxNDQuMDA=)"
     id="g52" />
  <g
     clip-path="url(#cpMC4wMHwxMjQuNDR8MC4wMHwxNDQuMDA=)"
     id="g54" />
  <g
     clip-path="url(#cpMC4wMHwxMjQuNDR8MC4xNHwxNDQuMDA=)"
     id="g56" />
  <g
     clip-path="url(#cpMC4wMHwxMjQuNDR8MC4wMHwxNDQuMDA=)"
     id="g58" />
  <g
     clip-path="url(#cpMC4wMHwxMjQuNDR8MC4xNHwxNDQuMDA=)"
     id="g60" />
  <g
     clip-path="url(#cpMC4wMHwxMjQuNDR8MC4wMHwxNDQuMDA=)"
     id="g62" />
  <g
     clip-path="url(#cpMC4wMHwxMjQuNDR8MC4xNHwxNDQuMDA=)"
     id="g64" />
  <g
     clip-path="url(#cpMC4wMHwxMjQuNDR8MC4wMHwxNDQuMDA=)"
     id="g66" />
  <g
     clip-path="url(#cpMC4wMHwxMjQuNDR8MC4xNHwxNDQuMDA=)"
     id="g68" />
  <g
     clip-path="url(#cpMC4wMHwxMjQuNDR8MC4wMHwxNDQuMDA=)"
     id="g70" />
  <g
     clip-path="url(#cpMC4wMHwxMjQuNDR8MC4xNHwxNDQuMDA=)"
     id="g72" />
  <g
     clip-path="url(#cpMC4wMHwxMjQuNDR8MC4wMHwxNDQuMDA=)"
     id="g74" />
  <g
     clip-path="url(#cpMC4wMHwxMjQuNDR8MC4xNHwxNDQuMDA=)"
     id="g76" />
  <g
     clip-path="url(#cpMC4wMHwxMjQuNDR8MC4wMHwxNDQuMDA=)"
     id="g78" />
  <g
     clip-path="url(#cpMC4wMHwxMjQuNDR8MC4xNHwxNDQuMDA=)"
     id="g80" />
  <g
     clip-path="url(#cpMC4wMHwxMjQuNDR8MC4wMHwxNDQuMDA=)"
     id="g82" />
  <g
     clip-path="url(#cpMC4wMHwxMjQuNDR8MC4xNHwxNDQuMDA=)"
     id="g84" />
  <g
     clip-path="url(#cpMC4wMHwxMjQuNDR8MC4wMHwxNDQuMDA=)"
     id="g86" />
  <g
     clip-path="url(#cpMC4wMHwxMjQuNDR8MC4xNHwxNDQuMDA=)"
     id="g88" />
  <g
     clip-path="url(#cpMC4wMHwxMjQuNDR8MC4wMHwxNDQuMDA=)"
     id="g90" />
  <g
     clip-path="url(#cpMC4wMHwxMjQuNDR8MC4xNHwxNDQuMDA=)"
     id="g92" />
  <g
     clip-path="url(#cpMC4wMHwxMjQuNDR8MC4wMHwxNDQuMDA=)"
     id="g94" />
  <g
     clip-path="url(#cpMC4wMHwxMjQuNDR8MC4xNHwxNDQuMDA=)"
     id="g96" />
  <g
     clip-path="url(#cpMC4wMHwxMjQuNDR8MC4wMHwxNDQuMDA=)"
     id="g98" />
  <g
     clip-path="url(#cpMC4wMHwxMjQuNDR8MC4xNHwxNDQuMDA=)"
     id="g100" />
  <g
     clip-path="url(#cpMC4wMHwxMjQuNDR8MC4wMHwxNDQuMDA=)"
     id="g102" />
  <g
     clip-path="url(#cpMC4wMHwxMjQuNDR8MC4xNHwxNDQuMDA=)"
     id="g104" />
  <g
     clip-path="url(#cpMC4wMHwxMjQuNDR8MC4wMHwxNDQuMDA=)"
     id="g106" />
  <g
     clip-path="url(#cpMC4wMHwxMjQuNDR8MC4xNHwxNDQuMDA=)"
     id="g110">
    <polygon
       points="1.08,36.81 1.08,107.33 62.15,142.59 123.22,107.33 123.22,36.81 62.15,1.55 1.08,36.81 "
       style="stroke-width: 1.71; fill: none;"
       id="polygon108" />
  </g>
  <g
     clip-path="url(#cpMC4wMHwxMjQuNDR8MC4wMHwxNDQuMDA=)"
     id="g112" />
  <g
     inkscape:groupmode="layer"
     id="layer1"
     inkscape:label="Layer 1">
    <g
       id="g11074"
       transform="matrix(0.03391033,-0.0019305,0.0019305,0.03391033,47.939948,99.650767)"
       style="fill:none;stroke:#ffffff;stroke-width:11.04070036;stroke-miterlimit:4;stroke-dasharray:none;stroke-opacity:1">
      <path
         id="path10183"
         style="fill:none;fill-opacity:1;stroke:#ffffff;stroke-width:11.04070036;stroke-miterlimit:4;stroke-dasharray:none;stroke-opacity:1"
         d="M 260.23,242.48 C 470.17,49.91 703.98,47.53 770.09,50.38 c 54.62,2.3575 100.81,8.0024 121.59,12.397 34.724,7.3432 25.195,7.327 46.702,33.008 21.507,25.681 34.249,26.987 35.022,68.388 0.63801,34.21 5.9807,206.33 -60.35,357.28 -66.33,150.96 -113.03,188.58 -173.28,243.85 -60.25,55.26 -197.57,142.87 -350.57,174.11 -79.27,16.19 -298.03,7.65 -312.03,-10.34 -5.637,-8.26 -14.161,-17.48 -20.932,-22.5 -15.188,-16.56 -25.367,-51.22 -26.948,-79.87 -1.581,-28.65 -13.148,-189.89 60.548,-346.12 73.692,-156.24 170.39,-238.1 170.39,-238.1 z" />
      <path
         id="path10193"
         style="fill:none;stroke:#ffffff;stroke-width:11.04070036;stroke-miterlimit:4;stroke-dasharray:none;stroke-opacity:1"
         d="m 81.755,498.52 c -17.329,40.267 -29.251,80.502 -37.386,118.39 4.8183,9.8888 10.692,21.773 12.387,24.377 2.6562,4.0799 9.8658,7.23 9.8658,7.23 0,0 -0.24233,5.6715 6.7906,13.339 7.0329,7.6676 100.31,117.63 135.92,158.82 35.608,41.19 60.582,66.049 63.828,69.588 1.8593,2.0271 5.4259,4.4291 8.2525,6.1763 15.543,-4.2981 40.828,-11.574 59.3,-18.331 25.786,-9.4319 41.733,-15.98 51.254,-20.168 -0.92898,-3.5265 -2.8187,-8.4402 -6.4702,-10.992 -6.06,-4.24 -101.43,-104.63 -149.43,-160.52 -48,-55.88 -118.77,-135.42 -122.01,-138.95 -3.246,-3.5389 -3.423,-13.194 -3.423,-13.194 0,0 -2.9747,3.8179 -10.5,-5.5704 -7.5251,-9.3882 -13.348,-19.236 -15.955,-24.447 -0.62991,-1.2589 -1.4808,-3.3519 -2.4226,-5.756 z" />
      <path
         id="path10195"
         style="fill:none;stroke:#ffffff;stroke-width:11.04070036;stroke-miterlimit:4;stroke-dasharray:none;stroke-opacity:1"
         d="m 552.33,77.767 c 7.6396,1.441 16.468,3.7036 22.299,7.0918 10.117,5.8786 7.2293,4.2466 15.934,12.553 6.1574,5.8755 3.6488,6.8 1.6445,6.847 3.4263,0.19543 12.986,0.99306 15.66,3.9093 3.246,3.5389 82.226,81.738 133.77,134.38 51.541,52.64 131.27,147.86 134.96,154.25 1.9395,3.3594 5.3564,5.8918 8.1919,7.5795 6.3015,-11.345 20.928,-38.305 29.718,-59.927 6.415,-15.779 11.614,-29.352 15.137,-38.682 -0.26239,-4.2533 -0.85961,-8.2834 -2.1944,-9.7387 -3.246,-3.5389 -55.746,-68.375 -93.713,-107.4 -37.99,-39.03 -101.25,-98.675 -108.29,-106.34 -7.0329,-7.6676 -17.782,-8.1621 -17.782,-8.1621 0,0 -0.39445,-6.5863 -4.1954,-9.6282 -7.6255,-6.1026 -16.851,-9.38 -24.794,-11.164 -36.085,3.6608 -79.184,10.878 -126.37,24.433 z" />
      <path
         id="path10191"
         style="opacity:0.45588;fill:none;stroke:#ffffff;stroke-width:11.04070036;stroke-miterlimit:4;stroke-dasharray:none;stroke-opacity:1"
         d="M 289.82,288.47 C 153.45,415.36 99.96,522.71 62.98,644.95 25.416,769.13 32.805,835.61 32.374,851.83 c -0.3,11.28 3.809,20.47 11.456,33.72 -5.995,-11.04 -8.774,-17.68 -8.312,-28.41 0.689,-15.95 -7.828,-85.53 31.194,-208.12 39.018,-122.59 94.538,-230.37 235.77,-359.92 141.23,-129.54 236.2,-175.73 383.62,-209.3 139.8,-31.838 222.75,-10.397 235.54,-5.55 -1.2528,-1.159 -2.2862,-1.9645 -2.9632,-2.3491 -5.5124,-3.1314 -87.158,-27.851 -236.28,3.8598 -149.13,31.709 -244.79,77.149 -386.02,206.7 -2.2067,2.0242 -4.3929,4.0008 -6.5575,6.015 z M 57.61,909.33 c 4.2556,4.7263 14.202,13.914 30.748,18.478 40.748,11.23 150.59,-10.01 255.02,-44.39 104.43,-34.38 242.91,-113.66 328.94,-192.57 86.029,-78.912 131.33,-125.93 204.77,-257.42 73.437,-131.5 82.936,-214.76 89.192,-261.43 4.8006,-35.815 -2.7091,-50.402 -7.8855,-57.023 4.8549,6.4989 10.548,20.133 3.9079,57.329 -8.1726,45.78 -15.73,125.31 -90.209,255.68 -74.47,130.35 -119.86,177.27 -205.89,256.19 -86.03,78.91 -223.74,159.03 -327.17,194.5 -103.44,35.47 -214.01,55.9 -253.97,45.52 -14.959,-3.88 -23.449,-10.75 -27.446,-14.87 z M 958.4,114.98 c -0.3498,-0.44736 -0.66239,-0.87296 -0.98631,-1.2515 0.31958,0.38304 0.6541,0.80699 0.98631,1.2515 z m -4.3892,-5.1379 c 0.45698,0.53357 1.002,1.2099 1.3109,1.5467 0.27987,0.30513 0.64798,0.70457 0.96669,1.0539 -0.38192,-0.41639 -1.6279,-1.8647 -2.2776,-2.6007 z" />
      <path
         id="path10214"
         style="fill:none;stroke:#ffffff;stroke-width:11.04070036;stroke-miterlimit:4;stroke-dasharray:none;stroke-opacity:1"
         d="m 142.45,452.05 c -4.6501,-5.1162 -5.487,-8.0928 0.88539,-18.556 6.3723,-10.464 14.698,-20.834 21.395,-27.856 6.6976,-7.022 14.232,-11.067 18.93,-17.206 4.6977,-6.1385 11.721,-19.997 18.466,-27.996 6.7441,-7.9986 19.906,-17.159 23.069,-21.903 3.1629,-4.7434 7.0704,-14.835 19.396,-26.972 12.325,-12.137 20.371,-16.648 24.464,-20.368 4.0929,-3.7202 7.3024,-9.4403 19.163,-22.089 11.86,-12.649 19.86,-16.183 26.511,-22.228 6.6509,-6.0453 4.4191,-10.557 20.139,-22.043 15.7199,-11.486 25.626,-13.95 31.766,-19.53 6.1394,-5.5802 11.488,-15.114 23.581,-22.368 12.092,-7.254 21.394,-7.2996 29.486,-12.787 8.0926,-5.4871 13.395,-14.044 21.999,-19.996 8.6042,-5.9521 33.254,-19.948 39.579,-19.157 6.3248,0.79124 10.696,1.4893 15.346,6.6055 4.6501,5.1162 -4.7909,8.0918 -13.349,13.067 -8.5576,4.9754 -18.232,12.834 -22.325,16.554 -4.0929,3.7202 -16.372,14.881 -22.418,18.508 -6.0461,3.627 -18.557,9.3927 -29.114,15.252 -10.557,5.8589 -15.395,14.927 -25.581,23.251 -10.186,8.3238 -26.138,14.415 -30.277,19.112 -4.1395,4.6968 -16.558,18.787 -22.186,23.903 -5.6277,5.1152 -18.278,13.811 -23.394,18.461 -5.1161,4.6503 -16.651,20.741 -22.744,25.344 -6.0927,4.6036 -16.232,11.951 -23.953,19.903 -7.7208,7.952 -12.186,19.485 -20.419,27.902 -8.2324,8.417 -18.371,15.764 -25.116,23.763 -6.7442,7.9986 -8.0936,15.765 -15.908,25.67 -7.814,9.9053 -15.953,16.369 -23.209,24.833 -7.2558,8.4636 -12.512,16.044 -16.279,23.206 -3.7677,7.1618 -6.3723,10.464 -9.1158,6.4171 -2.7435,-4.0464 -8.7886,-10.697 -8.7886,-10.697 z" />
      <path
         id="path10216"
         style="fill:none;stroke:#ffffff;stroke-width:11.04070036;stroke-miterlimit:4;stroke-dasharray:none;stroke-opacity:1"
         d="m 134.21,442.8 c -2.2082,-2.9498 -5.2046,-5.6742 1.4143,-14.731 6.6188,-9.0565 9.5016,-9.7106 11.214,-7.3011 1.7125,2.4095 10.568,13.691 17.732,22.045 7.1649,8.3539 18.632,19.229 21.854,22.742 3.2219,3.5126 3.2908,7.9272 3.3598,12.342 0.0691,4.4146 0.72304,7.2974 -5.2008,6.2632 -5.92384,-1.0342 -11.803,-3.1045 -18.291,-9.0936 -6.4885,-5.9891 -20.682,-19.836 -23.634,-23.597 -2.9517,-3.7604 -8.4488,-8.6688 -8.4488,-8.6688 z" />
      <path
         id="path10218"
         style="fill:none;stroke:#ffffff;stroke-width:11.04070036;stroke-miterlimit:4;stroke-dasharray:none;stroke-opacity:1"
         d="m 172.5,391.25 c -1.938,-3.1977 -2.5026,-8.1526 1.077,-12.929 3.5796,-4.7761 5.8082,-8.3129 8.1282,-7.9533 2.32,0.35964 3.7846,2.4989 6.2406,5.719 2.456,3.2201 6.332,9.6154 15.254,19.343 8.9221,9.7272 15.5,13.644 19.218,17.697 3.7175,4.053 9.5743,6.6414 8.6296,10.493 -0.94474,3.8518 -1.3938,8.244 -4.2989,9.4161 -2.9051,1.1721 -12.477,0.49945 -19.98,-6.0525 -7.5022,-6.5519 -19.555,-15.895 -24.759,-21.57 -5.2046,-5.6742 -9.5091,-14.164 -9.5091,-14.164 z" />
      <path
         id="path10220"
         style="fill:none;stroke:#ffffff;stroke-width:11.04070036;stroke-miterlimit:4;stroke-dasharray:none;stroke-opacity:1"
         d="m 297.59,249.45 c -1.2951,-2.3861 -0.64923,-6.5525 2.7474,-9.6681 3.39663,-3.1156 6.5489,-11.368 10.715,-10.722 4.1663,0.64585 6.1508,8.6541 12.867,15.002 6.7163,6.3483 23.224,23.372 30.021,27.86 6.7966,4.4876 8.0516,7.804 8.8213,11.566 0.76969,3.7615 -0.32123,7.4427 -3.1925,9.1829 -2.8712,1.7402 -5.7023,2.5501 -15.695,-3.4736 -9.9925,-6.0237 -28.887,-21.752 -34.228,-27.575 -5.341,-5.8229 -12.057,-12.171 -12.057,-12.171 z" />
      <path
         id="path10222"
         style="fill:none;stroke:#ffffff;stroke-width:11.04070036;stroke-miterlimit:4;stroke-dasharray:none;stroke-opacity:1"
         d="m 358.89,189.65 c 3.8818,-3.5607 7.8474,1.7368 11.893,5.1737 4.0459,3.4368 26.34,26.769 31.236,32.106 4.8959,5.3377 12.258,7.5196 11.572,12.616 -0.68599,5.0968 2.0246,7.0779 -2.3023,10.153 -4.3269,3.0755 -11.81,3.6846 -17.596,-2.6236 -5.786,-6.3082 -25.855,-27.214 -29.901,-30.651 -4.0459,-3.4369 -11.328,-7.4794 -13.553,-9.9056 -2.2254,-2.4262 -5.9065,-3.5172 -1.0542,-7.9681 l 9.7046,-8.9018 z" />
      <path
         id="path10224"
         style="fill:none;stroke:#ffffff;stroke-width:11.04070036;stroke-miterlimit:4;stroke-dasharray:none;stroke-opacity:1"
         d="m 415.35,155.73 c 4.7318,-1.6599 8.858,-0.0836 14.684,5.2941 5.8262,5.3778 28.201,26.849 31.316,30.246 3.1156,3.3967 7.4057,11.97 6.7599,16.137 -0.64584,4.1664 -6.0235,9.9927 -11.08,8.3764 -5.0565,-1.6163 -11.974,-3.313 -15.779,-12.332 -3.8049,-9.0188 -23.144,-25.233 -26.705,-29.115 -3.5606,-3.882 -7.9277,0.12382 -11.488,-3.7581 -3.5606,-3.8819 -4.3705,-6.7131 0.40153,-9.3033 4.77203,-2.5902 11.89,-5.5452 11.89,-5.5452 z" />
      <path
         id="path10226"
         style="fill:none;stroke:#ffffff;stroke-width:11.04070036;stroke-miterlimit:4;stroke-dasharray:none;stroke-opacity:1"
         d="m 266.22,274.66 c 4.3269,-3.0755 4.5311,2.9918 8.577,6.4286 4.0459,3.4368 25.61,22.077 32.246,30.286 6.636,8.209 10.682,11.646 8.0148,19.453 -2.6671,7.8074 -3.5974,7.7673 -12.74,3.6444 -9.1425,-4.1229 -17.479,-16.133 -25.53,-23.938 -8.0516,-7.804 -15.698,-14.193 -20.149,-19.045 -4.4508,-4.8524 -2.4697,-7.5631 0.44168,-10.234 2.9114,-2.6706 9.1391,-6.596 9.1391,-6.596 z" />
      <path
         id="path10228"
         style="fill:none;stroke:#ffffff;stroke-width:11.04070036;stroke-miterlimit:4;stroke-dasharray:none;stroke-opacity:1"
         d="m 466.02,126.23 c 7.1179,-2.955 11.81,-3.6846 16.301,0.23753 4.4909,3.9221 31.922,27.01 35.402,32.752 3.4803,5.7426 7.3254,13.831 5.7493,17.957 -1.5762,4.1263 0.004,10.719 -11.364,4.1698 -11.368,-6.5491 -18.205,-10.106 -23.06,-16.374 -4.8557,-6.268 -9.4304,-19.048 -16.672,-24.021 -7.2417,-4.9729 -9.1826,-3.1925 -11.893,-5.1737 -2.7106,-1.9811 1.2917,-8.3328 1.2917,-8.3328 z" />
      <path
         id="path10230"
         style="fill:none;stroke:#ffffff;stroke-width:11.04070036;stroke-miterlimit:4;stroke-dasharray:none;stroke-opacity:1"
         d="m 218.46,322.93 c 3.3966,-3.1156 2.9114,-2.6705 8.2523,3.1524 5.341,5.8229 7.0811,8.6942 14.647,16.943 7.5663,8.2491 10.397,7.4393 15.738,13.262 5.3409,5.8229 9.9122,7.8844 12.502,12.656 2.5901,4.7721 3.0352,5.2574 0.93368,10.759 -2.1015,5.5017 -12.375,5.9903 -23.137,-3.7948 -10.762,-9.7852 -31.761,-30.731 -35.282,-35.543 -3.5205,-4.8123 -1.9042,-9.8689 0.48185,-11.164 2.38605,-1.2951 5.8629,-6.2714 5.8629,-6.2714 z" />
    </g>
    <path
       fill="currentColor"
       d="m 79.949308,35.117587 c 0.334056,-0.867016 0.521451,-1.815062 0.521451,-2.803623 0,-4.294566 -3.503489,-7.778836 -7.82175,-7.778836 -1.605088,0 -3.104247,0.486177 -4.342692,1.312679 -2.256906,-3.889419 -6.46924,-6.49857 -11.300798,-6.49857 -7.202527,0 -13.036244,5.801715 -13.036244,12.964727 0,0.21878 0.0084,0.43756 0.01628,0.65634 -4.562684,1.596282 -7.838035,5.92326 -7.838035,11.011915 0,6.441852 5.255229,11.668256 11.732616,11.668256 h 29.983359 c 5.760386,0 10.428989,-4.642993 10.428989,-10.371783 0,-5.015729 -3.584966,-9.204957 -8.343193,-10.161105 z"
       id="path1006"
       style="opacity:0.3;stroke:#e8eaed;stroke-width:0.750001;stroke-opacity:1" />
  </g>
  <g
     inkscape:groupmode="layer"
     id="layer2"
     inkscape:label="Layer 2">
    <rect
       style="opacity:1;fill:#303134;fill-opacity:1;stroke:none;stroke-width:1.0455;stroke-linecap:butt;stroke-linejoin:round;stroke-miterlimit:0;stroke-dasharray:none;stroke-dashoffset:33.5;stroke-opacity:1;paint-order:markers stroke fill"
       id="rect2528"
       width="4.3577719"
       height="6.1320753"
       x="60.041115"
       y="52.43552" />
  </g>
  <g
     id="g2569"
     transform="matrix(1,0,0,0.72694211,-0.54084444,22.685772)">
    <path
       style="opacity:0.3;fill:#e8eaed;fill-opacity:1;stroke:#e8eaed;stroke-width:1.0455;stroke-linecap:butt;stroke-linejoin:miter;stroke-miterlimit:0;stroke-dasharray:none;stroke-opacity:1;marker-end:url(#TriangleOutL)"
       d="m 62.760846,94.06353 v 0.0036"
       id="path988" />
    <path
       style="opacity:0.3;fill:none;stroke:#e8eaed;stroke-width:0.75px;stroke-linecap:butt;stroke-linejoin:miter;stroke-opacity:1"
       d="M 62.817814,80.74494 V 91.093117"
       id="path2490" />
  </g>
  <g
     inkscape:groupmode="layer"
     id="layer3"
     inkscape:label="Layer 3">
    <path
       style="opacity:0.3;fill:none;stroke:#e8eaed;stroke-width:0.854441px;stroke-linecap:butt;stroke-linejoin:miter;stroke-opacity:1"
       d="M 62.220002,47.240891 V 67.671016"
       id="path2488" />
  </g>
  <text
     xml:space="preserve"
     id="text2446"
     style="line-height:1.25;font-family:'IBM Plex Sans';font-size:30.00000017px;-inkscape-font-specification:'IBM Plex Sans';white-space:pre;shape-inside:url(#rect2448);" />
  <text
     xml:space="preserve"
     id="text2452"
     style="line-height:1.25;font-family:'IBM Plex Sans';font-size:30.00000017px;-inkscape-font-specification:'IBM Plex Sans';white-space:pre;shape-inside:url(#rect2454);" />
  <text
     xml:space="preserve"
     id="text2458"
     style="line-height:1.25;font-family:'IBM Plex Sans';font-size:30.00000017px;-inkscape-font-specification:'IBM Plex Sans';white-space:pre;shape-inside:url(#rect2460);" />
  <rect
     width="99.999992%"
     height="99.999992%"
     style="fill:none;stroke:none;stroke-width:0.999998;stroke-linecap:round;stroke-linejoin:round;stroke-miterlimit:10"
     id="rect6-0-5-2-32-9-8"
     x="3.4829102e-06"
     y="-143.70999" />
  <g
     clip-path="url(#cpMC4wMHwxMjQuNDR8MC4xNHwxNDMuODY=-3-3-4-6-6-6)"
     id="g22-3-9-2-9-3-5"
     transform="translate(0,-143.71001)">
    <rect
       x="0"
       y="0.14"
       width="124.44"
       height="143.71001"
       style="stroke:none;stroke-width:1.07"
       id="rect20-2-6-9-3-4-2" />
  </g>
  <text
     xml:space="preserve"
     id="text3498"
     style="line-height:1.25;font-family:'IBM Plex Sans';font-size:30.00000017px;-inkscape-font-specification:'IBM Plex Sans';white-space:pre;shape-inside:url(#rect3500);" />
  <g
     aria-label="nflreadr"
     id="text1472-7-2-2-3-1-0"
     style="font-size:25px;line-height:1.25;font-family:'IBM Plex Sans';-inkscape-font-specification:'IBM Plex Sans';stroke:#000000;stroke-width:0.375;stroke-miterlimit:4;stroke-dasharray:none;stroke-opacity:1">
    <g
       id="g3658"
       style="opacity:1">
      <path
         style="color:#000000;font-style:normal;font-variant:normal;font-weight:500;font-stretch:normal;font-size:25px;line-height:1.25;font-family:'Bai Jamjuree';-inkscape-font-specification:'Bai Jamjuree Medium';font-variant-ligatures:normal;font-variant-position:normal;font-variant-caps:normal;font-variant-numeric:normal;font-variant-alternates:normal;font-variant-east-asian:normal;font-feature-settings:normal;font-variation-settings:normal;text-indent:0;text-align:start;text-decoration:none;text-decoration-line:none;text-decoration-style:solid;text-decoration-color:#000000;letter-spacing:normal;word-spacing:normal;text-transform:none;writing-mode:lr-tb;direction:ltr;text-orientation:mixed;dominant-baseline:auto;baseline-shift:baseline;text-anchor:start;white-space:normal;shape-padding:0;shape-margin:0;inline-size:0;clip-rule:nonzero;display:inline;overflow:visible;visibility:visible;isolation:auto;mix-blend-mode:normal;color-interpolation:sRGB;color-interpolation-filters:linearRGB;solid-color:#000000;solid-opacity:1;vector-effect:none;fill:#ffffff;fill-opacity:1;fill-rule:nonzero;stroke:none;stroke-width:0.375;stroke-linecap:round;stroke-linejoin:round;stroke-miterlimit:4;stroke-dasharray:none;stroke-dashoffset:0;stroke-opacity:1.0;color-rendering:auto;image-rendering:auto;shape-rendering:auto;text-rendering:auto;enable-background:accumulate;stop-color:#000000;stop-opacity:1;"
         d="m 17.907581,68.224997 h 2.225 v 1.725 c 0.366667,-0.566667 0.85,-1.025 1.45,-1.375 0.616667,-0.366667 1.225,-0.55 1.825,-0.55 h 1.65 c 1.2,0 2.166667,0.4 2.9,1.2 0.75,0.8 1.125,1.85 1.125,3.15 v 8.325 h -2.325 v -8.325 c 0,-0.683333 -0.175,-1.233333 -0.525,-1.65 -0.35,-0.433333 -0.808333,-0.65 -1.375,-0.65 h -1.55 c -0.716667,0 -1.366667,0.275 -1.95,0.825 -0.583333,0.55 -0.958333,1.266667 -1.125,2.15 v 7.65 h -2.325 z"
         id="path3660" />
      <path
         style="color:#000000;font-style:normal;font-variant:normal;font-weight:500;font-stretch:normal;font-size:25px;line-height:1.25;font-family:'Bai Jamjuree';-inkscape-font-specification:'Bai Jamjuree Medium';font-variant-ligatures:normal;font-variant-position:normal;font-variant-caps:normal;font-variant-numeric:normal;font-variant-alternates:normal;font-variant-east-asian:normal;font-feature-settings:normal;font-variation-settings:normal;text-indent:0;text-align:start;text-decoration:none;text-decoration-line:none;text-decoration-style:solid;text-decoration-color:#000000;letter-spacing:normal;word-spacing:normal;text-transform:none;writing-mode:lr-tb;direction:ltr;text-orientation:mixed;dominant-baseline:auto;baseline-shift:baseline;text-anchor:start;white-space:normal;shape-padding:0;shape-margin:0;inline-size:0;clip-rule:nonzero;display:inline;overflow:visible;visibility:visible;isolation:auto;mix-blend-mode:normal;color-interpolation:sRGB;color-interpolation-filters:linearRGB;solid-color:#000000;solid-opacity:1;vector-effect:none;fill:#000000;fill-opacity:1;fill-rule:nonzero;stroke:none;stroke-width:0.375;stroke-linecap:round;stroke-linejoin:round;stroke-miterlimit:4;stroke-dasharray:none;stroke-dashoffset:0;stroke-opacity:1.0;color-rendering:auto;image-rendering:auto;shape-rendering:auto;text-rendering:auto;enable-background:accumulate;stop-color:#000000;stop-opacity:1;"
         d="M 23.408203 67.837891 C 22.770009 67.837891 22.125956 68.033743 21.486328 68.414062 C 21.006204 68.694511 20.658342 69.10353 20.320312 69.519531 L 20.320312 68.224609 A 0.18751875 0.18751875 0 0 0 20.132812 68.037109 L 17.908203 68.037109 A 0.18751875 0.18751875 0 0 0 17.720703 68.224609 L 17.720703 80.699219 A 0.18751875 0.18751875 0 0 0 17.908203 80.886719 L 20.232422 80.886719 A 0.18751875 0.18751875 0 0 0 20.419922 80.699219 L 20.419922 73.076172 C 20.581374 72.229576 20.935056 71.55688 21.486328 71.037109 C 22.041776 70.513402 22.637939 70.261719 23.306641 70.261719 L 24.857422 70.261719 C 25.376294 70.261719 25.767017 70.448896 26.085938 70.84375 A 0.18751875 0.18751875 0 0 0 26.089844 70.845703 C 26.407375 71.223716 26.570312 71.723679 26.570312 72.375 L 26.570312 80.699219 A 0.18751875 0.18751875 0 0 0 26.757812 80.886719 L 29.082031 80.886719 A 0.18751875 0.18751875 0 0 0 29.269531 80.699219 L 29.269531 72.375 C 29.269531 71.038942 28.878409 69.934626 28.09375 69.097656 C 27.326113 68.260914 26.297703 67.837891 25.056641 67.837891 L 23.408203 67.837891 z M 23.408203 68.212891 L 25.056641 68.212891 C 26.214974 68.212891 27.121403 68.589116 27.820312 69.351562 A 0.18751875 0.18751875 0 0 0 27.820312 69.353516 C 28.535653 70.116546 28.894531 71.111058 28.894531 72.375 L 28.894531 80.511719 L 26.945312 80.511719 L 26.945312 72.375 C 26.945312 71.661314 26.75958 71.062355 26.378906 70.607422 C 25.997827 70.135609 25.471883 69.886719 24.857422 69.886719 L 23.306641 69.886719 C 22.542009 69.886719 21.839735 70.187379 21.228516 70.763672 C 20.615213 71.341928 20.22157 72.100095 20.048828 73.015625 A 0.18751875 0.18751875 0 0 0 20.044922 73.050781 L 20.044922 80.511719 L 18.095703 80.511719 L 18.095703 68.412109 L 19.945312 68.412109 L 19.945312 69.949219 A 0.18751875 0.18751875 0 0 0 20.289062 70.052734 C 20.639953 69.510449 21.101417 69.072513 21.677734 68.736328 C 22.27144 68.383314 22.846398 68.212891 23.408203 68.212891 z "
         id="path3662" />
    </g>
    <g
       id="g3664"
       style="opacity:1">
      <path
         style="color:#000000;font-style:normal;font-variant:normal;font-weight:500;font-stretch:normal;font-size:25px;line-height:1.25;font-family:'Bai Jamjuree';-inkscape-font-specification:'Bai Jamjuree Medium';font-variant-ligatures:normal;font-variant-position:normal;font-variant-caps:normal;font-variant-numeric:normal;font-variant-alternates:normal;font-variant-east-asian:normal;font-feature-settings:normal;font-variation-settings:normal;text-indent:0;text-align:start;text-decoration:none;text-decoration-line:none;text-decoration-style:solid;text-decoration-color:#000000;letter-spacing:normal;word-spacing:normal;text-transform:none;writing-mode:lr-tb;direction:ltr;text-orientation:mixed;dominant-baseline:auto;baseline-shift:baseline;text-anchor:start;white-space:normal;shape-padding:0;shape-margin:0;inline-size:0;clip-rule:nonzero;display:inline;overflow:visible;visibility:visible;isolation:auto;mix-blend-mode:normal;color-interpolation:sRGB;color-interpolation-filters:linearRGB;solid-color:#000000;solid-opacity:1;vector-effect:none;fill:#ffffff;fill-opacity:1;fill-rule:nonzero;stroke:none;stroke-width:0.375;stroke-linecap:round;stroke-linejoin:round;stroke-miterlimit:4;stroke-dasharray:none;stroke-dashoffset:0;stroke-opacity:1.0;color-rendering:auto;image-rendering:auto;shape-rendering:auto;text-rendering:auto;enable-background:accumulate;stop-color:#000000;stop-opacity:1;"
         d="m 45.907566,78.674997 v 2.025 h -1.1 c -1.316667,0 -2.266667,-0.275 -2.85,-0.825 -0.583333,-0.566667 -0.875,-1.475 -0.875,-2.725 v -6.925 h -5.1 v 10.475 h -2.325 v -10.475 h -2.15 v -2.025 h 2.15 v -0.9 c 0,-1.366667 0.375,-2.408333 1.125,-3.125 0.75,-0.716667 1.833333,-1.075 3.25,-1.075 h 1.65 v 2 h -1.65 c -0.7,0 -1.216667,0.183333 -1.55,0.55 -0.333333,0.35 -0.5,0.908333 -0.5,1.675 v 0.875 h 5.1 v -5.075 h 2.325 v 13.95 c 0,0.566667 0.116667,0.975 0.35,1.225 0.233333,0.25 0.608333,0.375 1.125,0.375 z"
         id="path3666" />
      <path
         style="color:#000000;font-style:normal;font-variant:normal;font-weight:500;font-stretch:normal;font-size:25px;line-height:1.25;font-family:'Bai Jamjuree';-inkscape-font-specification:'Bai Jamjuree Medium';font-variant-ligatures:normal;font-variant-position:normal;font-variant-caps:normal;font-variant-numeric:normal;font-variant-alternates:normal;font-variant-east-asian:normal;font-feature-settings:normal;font-variation-settings:normal;text-indent:0;text-align:start;text-decoration:none;text-decoration-line:none;text-decoration-style:solid;text-decoration-color:#000000;letter-spacing:normal;word-spacing:normal;text-transform:none;writing-mode:lr-tb;direction:ltr;text-orientation:mixed;dominant-baseline:auto;baseline-shift:baseline;text-anchor:start;white-space:normal;shape-padding:0;shape-margin:0;inline-size:0;clip-rule:nonzero;display:inline;overflow:visible;visibility:visible;isolation:auto;mix-blend-mode:normal;color-interpolation:sRGB;color-interpolation-filters:linearRGB;solid-color:#000000;solid-opacity:1;vector-effect:none;fill:#000000;fill-opacity:1;fill-rule:nonzero;stroke:none;stroke-width:0.375;stroke-linecap:round;stroke-linejoin:round;stroke-miterlimit:4;stroke-dasharray:none;stroke-dashoffset:0;stroke-opacity:1.0;color-rendering:auto;image-rendering:auto;shape-rendering:auto;text-rendering:auto;enable-background:accumulate;stop-color:#000000;stop-opacity:1;"
         d="M 38.033203 62.912109 C 36.584919 62.912109 35.444976 63.281658 34.652344 64.039062 C 33.859303 64.796857 33.470703 65.899816 33.470703 67.300781 L 33.470703 68.011719 L 31.507812 68.011719 A 0.18751875 0.18751875 0 0 0 31.320312 68.199219 L 31.320312 70.224609 A 0.18751875 0.18751875 0 0 0 31.507812 70.412109 L 33.470703 70.412109 L 33.470703 80.699219 A 0.18751875 0.18751875 0 0 0 33.658203 80.886719 L 35.982422 80.886719 A 0.18751875 0.18751875 0 0 0 36.169922 80.699219 L 36.169922 70.412109 L 40.894531 70.412109 L 40.894531 77.150391 C 40.894531 78.429557 41.193414 79.395087 41.826172 80.009766 A 0.18751875 0.18751875 0 0 0 41.828125 80.011719 C 42.462691 80.610024 43.463866 80.886719 44.806641 80.886719 L 45.908203 80.886719 A 0.18751875 0.18751875 0 0 0 46.095703 80.699219 L 46.095703 78.675781 A 0.18751875 0.18751875 0 0 0 45.908203 78.488281 L 44.882812 78.488281 C 44.396388 78.488281 44.080763 78.371409 43.894531 78.171875 C 43.709414 77.973535 43.595703 77.61515 43.595703 77.074219 L 43.595703 63.125 A 0.18751875 0.18751875 0 0 0 43.408203 62.9375 L 41.082031 62.9375 A 0.18751875 0.18751875 0 0 0 40.894531 63.125 L 40.894531 68.011719 L 36.169922 68.011719 L 36.169922 67.324219 C 36.169922 66.584726 36.33296 66.079787 36.619141 65.779297 A 0.18751875 0.18751875 0 0 0 36.621094 65.775391 C 36.910483 65.457063 37.365941 65.287109 38.033203 65.287109 L 39.681641 65.287109 A 0.18751875 0.18751875 0 0 0 39.869141 65.099609 L 39.869141 63.099609 A 0.18751875 0.18751875 0 0 0 39.681641 62.912109 L 38.033203 62.912109 z M 38.033203 63.287109 L 39.494141 63.287109 L 39.494141 64.912109 L 38.033203 64.912109 C 37.302234 64.912109 36.724993 65.108534 36.347656 65.521484 C 35.967171 65.920994 35.794922 66.530378 35.794922 67.324219 L 35.794922 68.199219 A 0.18751875 0.18751875 0 0 0 35.982422 68.386719 L 41.082031 68.386719 A 0.18751875 0.18751875 0 0 0 41.269531 68.199219 L 41.269531 63.3125 L 43.220703 63.3125 L 43.220703 77.074219 C 43.220703 77.666621 43.339544 78.126074 43.621094 78.427734 C 43.901529 78.728201 44.335904 78.863281 44.882812 78.863281 L 45.720703 78.863281 L 45.720703 80.511719 L 44.806641 80.511719 C 43.517479 80.511719 42.620209 80.24089 42.087891 79.740234 L 42.085938 79.738281 C 41.553181 79.219464 41.269531 78.369861 41.269531 77.150391 L 41.269531 70.224609 A 0.18751875 0.18751875 0 0 0 41.082031 70.037109 L 35.982422 70.037109 A 0.18751875 0.18751875 0 0 0 35.794922 70.224609 L 35.794922 80.511719 L 33.845703 80.511719 L 33.845703 70.224609 A 0.18751875 0.18751875 0 0 0 33.658203 70.037109 L 31.695312 70.037109 L 31.695312 68.386719 L 33.658203 68.386719 A 0.18751875 0.18751875 0 0 0 33.845703 68.199219 L 33.845703 67.300781 C 33.845703 65.968413 34.20515 64.986086 34.912109 64.310547 C 35.619477 63.634618 36.648154 63.287109 38.033203 63.287109 z "
         id="path3668" />
    </g>
    <g
       id="g3670"
       style="opacity:1">
      <path
         style="color:#000000;font-style:normal;font-variant:normal;font-weight:500;font-stretch:normal;font-size:25px;line-height:1.25;font-family:'Bai Jamjuree';-inkscape-font-specification:'Bai Jamjuree Medium';font-variant-ligatures:normal;font-variant-position:normal;font-variant-caps:normal;font-variant-numeric:normal;font-variant-alternates:normal;font-variant-east-asian:normal;font-feature-settings:normal;font-variation-settings:normal;text-indent:0;text-align:start;text-decoration:none;text-decoration-line:none;text-decoration-style:solid;text-decoration-color:#000000;letter-spacing:normal;word-spacing:normal;text-transform:none;writing-mode:lr-tb;direction:ltr;text-orientation:mixed;dominant-baseline:auto;baseline-shift:baseline;text-anchor:start;white-space:normal;shape-padding:0;shape-margin:0;inline-size:0;clip-rule:nonzero;display:inline;overflow:visible;visibility:visible;isolation:auto;mix-blend-mode:normal;color-interpolation:sRGB;color-interpolation-filters:linearRGB;solid-color:#000000;solid-opacity:1;vector-effect:none;fill:#ffffff;fill-opacity:1;fill-rule:nonzero;stroke:none;stroke-width:0.375;stroke-linecap:round;stroke-linejoin:round;stroke-miterlimit:4;stroke-dasharray:none;stroke-dashoffset:0;stroke-opacity:1.0;color-rendering:auto;image-rendering:auto;shape-rendering:auto;text-rendering:auto;enable-background:accumulate;stop-color:#000000;stop-opacity:1;"
         d="m 48.007545,68.224997 h 2.225 v 1.825 c 0.333333,-0.55 0.816667,-1 1.45,-1.35 0.65,-0.35 1.325,-0.525 2.025,-0.525 h 1.3 v 2.075 h -1.3 c -1.016667,0 -1.833333,0.316667 -2.45,0.95 -0.616667,0.616667 -0.925,1.433333 -0.925,2.45 v 7.05 h -2.325 z"
         id="path3672" />
      <path
         style="color:#000000;font-style:normal;font-variant:normal;font-weight:500;font-stretch:normal;font-size:25px;line-height:1.25;font-family:'Bai Jamjuree';-inkscape-font-specification:'Bai Jamjuree Medium';font-variant-ligatures:normal;font-variant-position:normal;font-variant-caps:normal;font-variant-numeric:normal;font-variant-alternates:normal;font-variant-east-asian:normal;font-feature-settings:normal;font-variation-settings:normal;text-indent:0;text-align:start;text-decoration:none;text-decoration-line:none;text-decoration-style:solid;text-decoration-color:#000000;letter-spacing:normal;word-spacing:normal;text-transform:none;writing-mode:lr-tb;direction:ltr;text-orientation:mixed;dominant-baseline:auto;baseline-shift:baseline;text-anchor:start;white-space:normal;shape-padding:0;shape-margin:0;inline-size:0;clip-rule:nonzero;display:inline;overflow:visible;visibility:visible;isolation:auto;mix-blend-mode:normal;color-interpolation:sRGB;color-interpolation-filters:linearRGB;solid-color:#000000;solid-opacity:1;vector-effect:none;fill:#000000;fill-opacity:1;fill-rule:nonzero;stroke:none;stroke-width:0.375;stroke-linecap:round;stroke-linejoin:round;stroke-miterlimit:4;stroke-dasharray:none;stroke-dashoffset:0;stroke-opacity:1.0;color-rendering:auto;image-rendering:auto;shape-rendering:auto;text-rendering:auto;enable-background:accumulate;stop-color:#000000;stop-opacity:1;"
         d="M 53.707031 67.988281 C 52.975781 67.988281 52.268488 68.171836 51.59375 68.535156 A 0.18751875 0.18751875 0 0 0 51.591797 68.535156 C 51.084656 68.815418 50.74667 69.219287 50.419922 69.628906 L 50.419922 68.224609 A 0.18751875 0.18751875 0 0 0 50.232422 68.037109 L 48.007812 68.037109 A 0.18751875 0.18751875 0 0 0 47.820312 68.224609 L 47.820312 80.699219 A 0.18751875 0.18751875 0 0 0 48.007812 80.886719 L 50.332031 80.886719 A 0.18751875 0.18751875 0 0 0 50.519531 80.699219 L 50.519531 73.650391 C 50.519531 72.671634 50.810389 71.912268 51.390625 71.332031 A 0.18751875 0.18751875 0 0 0 51.392578 71.330078 C 51.973316 70.733644 52.729299 70.4375 53.707031 70.4375 L 55.007812 70.4375 A 0.18751875 0.18751875 0 0 0 55.195312 70.25 L 55.195312 68.175781 A 0.18751875 0.18751875 0 0 0 55.007812 67.988281 L 53.707031 67.988281 z M 53.707031 68.363281 L 54.820312 68.363281 L 54.820312 70.0625 L 53.707031 70.0625 C 52.652059 70.0625 51.777473 70.398923 51.125 71.068359 C 50.471903 71.721456 50.144531 72.595814 50.144531 73.650391 L 50.144531 80.511719 L 48.195312 80.511719 L 48.195312 68.412109 L 50.044922 68.412109 L 50.044922 70.050781 A 0.18751875 0.18751875 0 0 0 50.392578 70.146484 C 50.707306 69.627184 51.163693 69.201629 51.771484 68.865234 C 52.396746 68.528555 53.038281 68.363281 53.707031 68.363281 z "
         id="path3674" />
    </g>
    <g
       id="g3676"
       style="opacity:1">
      <path
         style="color:#000000;font-style:normal;font-variant:normal;font-weight:500;font-stretch:normal;font-size:25px;line-height:1.25;font-family:'Bai Jamjuree';-inkscape-font-specification:'Bai Jamjuree Medium';font-variant-ligatures:normal;font-variant-position:normal;font-variant-caps:normal;font-variant-numeric:normal;font-variant-alternates:normal;font-variant-east-asian:normal;font-feature-settings:normal;font-variation-settings:normal;text-indent:0;text-align:start;text-decoration:none;text-decoration-line:none;text-decoration-style:solid;text-decoration-color:#000000;letter-spacing:normal;word-spacing:normal;text-transform:none;writing-mode:lr-tb;direction:ltr;text-orientation:mixed;dominant-baseline:auto;baseline-shift:baseline;text-anchor:start;white-space:normal;shape-padding:0;shape-margin:0;inline-size:0;clip-rule:nonzero;display:inline;overflow:visible;visibility:visible;isolation:auto;mix-blend-mode:normal;color-interpolation:sRGB;color-interpolation-filters:linearRGB;solid-color:#000000;solid-opacity:1;vector-effect:none;fill:#ffffff;fill-opacity:1;fill-rule:nonzero;stroke:none;stroke-width:0.375;stroke-linecap:round;stroke-linejoin:round;stroke-miterlimit:4;stroke-dasharray:none;stroke-dashoffset:0;stroke-opacity:1.0;color-rendering:auto;image-rendering:auto;shape-rendering:auto;text-rendering:auto;enable-background:accumulate;stop-color:#000000;stop-opacity:1;"
         d="m 61.082485,80.899997 c -1.466667,0 -2.65,-0.416667 -3.55,-1.25 -0.883333,-0.85 -1.325,-1.958333 -1.325,-3.325 v -3.45 c 0,-1.466667 0.441667,-2.641667 1.325,-3.525 0.9,-0.883333 2.083333,-1.325 3.55,-1.325 h 2.05 c 1.416667,0 2.558333,0.433333 3.425,1.3 0.866667,0.866667 1.3,2.016667 1.3,3.45 v 2.35 h -9.325 v 1.2 c 0,0.766667 0.233333,1.383333 0.7,1.85 0.466667,0.466667 1.083333,0.7 1.85,0.7 h 1.925 c 0.75,0 1.358333,-0.191667 1.825,-0.575 0.466667,-0.4 0.7,-0.925 0.7,-1.575 h 2.275 c 0,1.25 -0.441667,2.258333 -1.325,3.025 -0.883333,0.766667 -2.05,1.15 -3.5,1.15 z m 4.45,-7.625 v -0.5 c 0,-0.833333 -0.225,-1.5 -0.675,-2 -0.433333,-0.5 -1.008333,-0.75 -1.725,-0.75 h -2.05 c -0.766667,0 -1.383333,0.266667 -1.85,0.8 -0.466667,0.516667 -0.7,1.208333 -0.7,2.075 v 0.375 z"
         id="path3678" />
      <path
         style="color:#000000;font-style:normal;font-variant:normal;font-weight:500;font-stretch:normal;font-size:25px;line-height:1.25;font-family:'Bai Jamjuree';-inkscape-font-specification:'Bai Jamjuree Medium';font-variant-ligatures:normal;font-variant-position:normal;font-variant-caps:normal;font-variant-numeric:normal;font-variant-alternates:normal;font-variant-east-asian:normal;font-feature-settings:normal;font-variation-settings:normal;text-indent:0;text-align:start;text-decoration:none;text-decoration-line:none;text-decoration-style:solid;text-decoration-color:#000000;letter-spacing:normal;word-spacing:normal;text-transform:none;writing-mode:lr-tb;direction:ltr;text-orientation:mixed;dominant-baseline:auto;baseline-shift:baseline;text-anchor:start;white-space:normal;shape-padding:0;shape-margin:0;inline-size:0;clip-rule:nonzero;display:inline;overflow:visible;visibility:visible;isolation:auto;mix-blend-mode:normal;color-interpolation:sRGB;color-interpolation-filters:linearRGB;solid-color:#000000;solid-opacity:1;vector-effect:none;fill:#000000;fill-opacity:1;fill-rule:nonzero;stroke:none;stroke-width:0.375;stroke-linecap:round;stroke-linejoin:round;stroke-miterlimit:4;stroke-dasharray:none;stroke-dashoffset:0;stroke-opacity:1.0;color-rendering:auto;image-rendering:auto;shape-rendering:auto;text-rendering:auto;enable-background:accumulate;stop-color:#000000;stop-opacity:1;"
         d="M 61.082031 67.837891 C 59.577723 67.837891 58.336729 68.297798 57.400391 69.216797 C 56.480368 70.13682 56.019531 71.370691 56.019531 72.875 L 56.019531 76.324219 C 56.019531 77.731282 56.482832 78.900343 57.402344 79.785156 A 0.18751875 0.18751875 0 0 0 57.404297 79.787109 C 58.341554 80.65494 59.579853 81.087891 61.082031 81.087891 L 62.982422 81.087891 C 64.465468 81.087891 65.68378 80.690581 66.605469 79.890625 C 67.526898 79.090894 67.994141 78.018776 67.994141 76.724609 A 0.18751875 0.18751875 0 0 0 67.806641 76.537109 L 65.533203 76.537109 A 0.18751875 0.18751875 0 0 0 65.345703 76.724609 C 65.345703 77.328054 65.139027 77.787463 64.712891 78.154297 C 64.284294 78.506359 63.725868 78.6875 63.007812 78.6875 L 61.082031 78.6875 C 60.353408 78.6875 59.795599 78.473333 59.365234 78.042969 C 58.93487 77.612604 58.720703 77.052842 58.720703 76.324219 L 58.720703 75.3125 L 67.857422 75.3125 A 0.18751875 0.18751875 0 0 0 68.044922 75.125 L 68.044922 72.775391 C 68.044922 71.304267 67.592665 70.096571 66.689453 69.193359 C 65.786666 68.290572 64.587714 67.837891 63.132812 67.837891 L 61.082031 67.837891 z M 61.082031 68.212891 L 63.132812 68.212891 C 64.511244 68.212891 65.595235 68.626485 66.425781 69.457031 C 67.255903 70.287153 67.669922 71.379848 67.669922 72.775391 L 67.669922 74.9375 L 58.533203 74.9375 A 0.18751875 0.18751875 0 0 0 58.345703 75.125 L 58.345703 76.324219 C 58.345703 77.128929 58.59664 77.803672 59.099609 78.306641 C 59.602578 78.80961 60.277321 79.0625 61.082031 79.0625 L 63.007812 79.0625 C 63.789757 79.0625 64.446435 78.859918 64.951172 78.445312 A 0.18751875 0.18751875 0 0 0 64.955078 78.441406 C 65.404679 78.056034 65.586137 77.510029 65.636719 76.912109 L 67.582031 76.912109 C 67.536652 78.019629 67.155627 78.916335 66.359375 79.607422 C 65.514397 80.340799 64.399376 80.712891 62.982422 80.712891 L 61.082031 80.712891 C 59.650876 80.712891 58.522899 80.310555 57.660156 79.511719 C 56.815171 78.696978 56.394531 77.648796 56.394531 76.324219 L 56.394531 72.875 C 56.394531 71.445975 56.819372 70.329066 57.666016 69.482422 C 58.529419 68.636041 59.654092 68.212891 61.082031 68.212891 z M 61.082031 69.837891 C 60.272846 69.837891 59.59376 70.128928 59.09375 70.699219 C 58.592129 71.254585 58.345703 72.00007 58.345703 72.900391 L 58.345703 73.275391 A 0.18751875 0.18751875 0 0 0 58.533203 73.462891 L 65.533203 73.462891 A 0.18751875 0.18751875 0 0 0 65.720703 73.275391 L 65.720703 72.775391 C 65.720703 71.908307 65.480743 71.18889 64.996094 70.650391 C 64.529517 70.114007 63.891456 69.837891 63.132812 69.837891 L 61.082031 69.837891 z M 61.082031 70.212891 L 63.132812 70.212891 C 63.805875 70.212891 64.315015 70.437097 64.714844 70.898438 A 0.18751875 0.18751875 0 0 0 64.71875 70.900391 C 65.134101 71.361891 65.345703 71.975807 65.345703 72.775391 L 65.345703 73.087891 L 58.720703 73.087891 L 58.720703 72.900391 C 58.720703 72.067378 58.939382 71.429139 59.371094 70.951172 A 0.18751875 0.18751875 0 0 0 59.373047 70.949219 C 59.806206 70.45418 60.358843 70.212891 61.082031 70.212891 z "
         id="path3680" />
    </g>
    <g
       id="g3682"
       style="opacity:1">
      <path
         style="color:#000000;font-style:normal;font-variant:normal;font-weight:500;font-stretch:normal;font-size:25px;line-height:1.25;font-family:'Bai Jamjuree';-inkscape-font-specification:'Bai Jamjuree Medium';font-variant-ligatures:normal;font-variant-position:normal;font-variant-caps:normal;font-variant-numeric:normal;font-variant-alternates:normal;font-variant-east-asian:normal;font-feature-settings:normal;font-variation-settings:normal;text-indent:0;text-align:start;text-decoration:none;text-decoration-line:none;text-decoration-style:solid;text-decoration-color:#000000;letter-spacing:normal;word-spacing:normal;text-transform:none;writing-mode:lr-tb;direction:ltr;text-orientation:mixed;dominant-baseline:auto;baseline-shift:baseline;text-anchor:start;white-space:normal;shape-padding:0;shape-margin:0;inline-size:0;clip-rule:nonzero;display:inline;overflow:visible;visibility:visible;isolation:auto;mix-blend-mode:normal;color-interpolation:sRGB;color-interpolation-filters:linearRGB;solid-color:#000000;solid-opacity:1;vector-effect:none;fill:#ffffff;fill-opacity:1;fill-rule:nonzero;stroke:none;stroke-width:0.375;stroke-linecap:round;stroke-linejoin:round;stroke-miterlimit:4;stroke-dasharray:none;stroke-dashoffset:0;stroke-opacity:1.0;color-rendering:auto;image-rendering:auto;shape-rendering:auto;text-rendering:auto;enable-background:accumulate;stop-color:#000000;stop-opacity:1;"
         d="m 74.45746,80.899997 c -1.25,0 -2.25,-0.316667 -3,-0.95 -0.75,-0.65 -1.125,-1.508333 -1.125,-2.575 v -0.825 c 0,-1.05 0.391667,-1.891667 1.175,-2.525 0.783333,-0.65 1.808333,-0.975 3.075,-0.975 h 1.575 c 0.5,0 1.033333,0.075 1.6,0.225 0.566667,0.15 1.05,0.358333 1.45,0.625 v -1.825 c 0,-0.616667 -0.191667,-1.108333 -0.575,-1.475 -0.383333,-0.383333 -0.883333,-0.575 -1.5,-0.575 h -2.05 c -0.633333,0 -1.141667,0.15 -1.525,0.45 -0.383333,0.3 -0.575,0.691667 -0.575,1.175 h -2.3 c 0,-1.083333 0.4,-1.958333 1.2,-2.625 0.816667,-0.666667 1.883333,-1 3.2,-1 h 2.05 c 1.316667,0 2.375,0.375 3.175,1.125 0.8,0.733333 1.2,1.708333 1.2,2.925 v 8.625 h -2.175 v -1.675 c -0.383333,0.566667 -0.883333,1.025 -1.5,1.375 -0.616667,0.333333 -1.241667,0.5 -1.875,0.5 z m 1.625,-1.925 c 0.733333,0 1.383333,-0.208333 1.95,-0.625 0.566667,-0.433333 0.958333,-1.008333 1.175,-1.725 v -0.75 c -0.316667,-0.283333 -0.75,-0.508333 -1.3,-0.675 -0.55,-0.166667 -1.116667,-0.25 -1.7,-0.25 h -1.6 c -0.583333,0 -1.058333,0.15 -1.425,0.45 -0.366667,0.3 -0.55,0.7 -0.55,1.2 v 0.75 c 0,0.5 0.175,0.9 0.525,1.2 0.366667,0.283333 0.85,0.425 1.45,0.425 z"
         id="path3684" />
      <path
         style="color:#000000;font-style:normal;font-variant:normal;font-weight:500;font-stretch:normal;font-size:25px;line-height:1.25;font-family:'Bai Jamjuree';-inkscape-font-specification:'Bai Jamjuree Medium';font-variant-ligatures:normal;font-variant-position:normal;font-variant-caps:normal;font-variant-numeric:normal;font-variant-alternates:normal;font-variant-east-asian:normal;font-feature-settings:normal;font-variation-settings:normal;text-indent:0;text-align:start;text-decoration:none;text-decoration-line:none;text-decoration-style:solid;text-decoration-color:#000000;letter-spacing:normal;word-spacing:normal;text-transform:none;writing-mode:lr-tb;direction:ltr;text-orientation:mixed;dominant-baseline:auto;baseline-shift:baseline;text-anchor:start;white-space:normal;shape-padding:0;shape-margin:0;inline-size:0;clip-rule:nonzero;display:inline;overflow:visible;visibility:visible;isolation:auto;mix-blend-mode:normal;color-interpolation:sRGB;color-interpolation-filters:linearRGB;solid-color:#000000;solid-opacity:1;vector-effect:none;fill:#000000;fill-opacity:1;fill-rule:nonzero;stroke:none;stroke-width:0.375;stroke-linecap:round;stroke-linejoin:round;stroke-miterlimit:4;stroke-dasharray:none;stroke-dashoffset:0;stroke-opacity:1.0;color-rendering:auto;image-rendering:auto;shape-rendering:auto;text-rendering:auto;enable-background:accumulate;stop-color:#000000;stop-opacity:1;"
         d="M 75.082031 67.837891 C 73.733719 67.837891 72.618578 68.181024 71.763672 68.878906 A 0.18751875 0.18751875 0 0 0 71.761719 68.880859 C 70.923347 69.579502 70.494141 70.520903 70.494141 71.650391 A 0.18751875 0.18751875 0 0 0 70.681641 71.837891 L 72.982422 71.837891 A 0.18751875 0.18751875 0 0 0 73.169922 71.650391 C 73.169922 71.216626 73.328981 70.892927 73.673828 70.623047 C 74.017694 70.353935 74.478303 70.212891 75.082031 70.212891 L 77.132812 70.212891 C 77.710628 70.212891 78.152214 70.384636 78.5 70.732422 A 0.18751875 0.18751875 0 0 0 78.501953 70.736328 C 78.847344 71.066702 79.019531 71.496403 79.019531 72.074219 L 79.019531 73.619141 C 78.654642 73.412988 78.274865 73.218209 77.804688 73.09375 C 77.224833 72.940259 76.676953 72.863281 76.158203 72.863281 L 74.582031 72.863281 C 73.283292 72.863281 72.210225 73.199145 71.388672 73.880859 C 70.566774 74.545953 70.144531 75.454715 70.144531 76.550781 L 70.144531 77.375 C 70.144531 78.485612 70.545625 79.408552 71.333984 80.091797 A 0.18751875 0.18751875 0 0 0 71.335938 80.09375 C 72.125169 80.760212 73.175365 81.087891 74.457031 81.087891 L 75.957031 81.087891 C 76.623259 81.087891 77.281587 80.910555 77.921875 80.564453 A 0.18751875 0.18751875 0 0 0 77.925781 80.5625 C 78.425038 80.279138 78.79067 79.867665 79.144531 79.445312 L 79.144531 80.699219 A 0.18751875 0.18751875 0 0 0 79.332031 80.886719 L 81.507812 80.886719 A 0.18751875 0.18751875 0 0 0 81.695312 80.699219 L 81.695312 72.074219 C 81.695312 70.817496 81.272243 69.781716 80.435547 69.013672 C 79.598103 68.228568 78.48508 67.837891 77.132812 67.837891 L 75.082031 67.837891 z M 75.082031 68.212891 L 77.132812 68.212891 C 78.413878 68.212891 79.417131 68.572213 80.179688 69.287109 A 0.18751875 0.18751875 0 0 0 80.181641 69.289062 C 80.943566 69.987494 81.320312 70.898648 81.320312 72.074219 L 81.320312 80.511719 L 79.519531 80.511719 L 79.519531 79.025391 A 0.18751875 0.18751875 0 0 0 79.177734 78.919922 C 78.811299 79.461609 78.335753 79.897878 77.744141 80.234375 C 77.743536 80.234702 77.742792 80.234048 77.742188 80.234375 C 77.741348 80.234852 77.741074 80.235851 77.740234 80.236328 C 77.148564 80.555397 76.556081 80.712891 75.957031 80.712891 L 74.457031 80.712891 C 73.239832 80.712891 72.29063 80.407691 71.580078 79.808594 L 71.578125 79.806641 C 70.867962 79.190156 70.519531 78.39667 70.519531 77.375 L 70.519531 76.550781 C 70.519531 75.547408 70.881062 74.771404 71.625 74.169922 A 0.18751875 0.18751875 0 0 0 71.626953 74.169922 C 72.372066 73.551636 73.347437 73.238281 74.582031 73.238281 L 76.158203 73.238281 C 76.639453 73.238281 77.155505 73.310522 77.708984 73.457031 C 78.25963 73.602791 78.724017 73.803641 79.103516 74.056641 A 0.18751875 0.18751875 0 0 0 79.394531 73.900391 L 79.394531 72.074219 C 79.394531 71.418701 79.182994 70.867803 78.761719 70.464844 C 78.343188 70.048034 77.786702 69.837891 77.132812 69.837891 L 75.082031 69.837891 C 74.419093 69.837891 73.864207 69.997237 73.441406 70.328125 C 73.079417 70.611421 72.941032 71.024382 72.886719 71.462891 L 70.90625 71.462891 C 70.952877 70.523876 71.291558 69.761918 72.001953 69.169922 C 72.78038 68.534471 73.79701 68.212891 75.082031 68.212891 z M 74.607422 74.761719 C 73.991946 74.761719 73.468836 74.923048 73.064453 75.253906 C 72.658274 75.586234 72.445312 76.053776 72.445312 76.599609 L 72.445312 77.349609 C 72.445312 77.893359 72.646077 78.35791 73.035156 78.691406 A 0.18751875 0.18751875 0 0 0 73.042969 78.699219 C 73.44879 79.012808 73.977908 79.162109 74.607422 79.162109 L 76.082031 79.162109 C 76.850876 79.162109 77.544812 78.941487 78.142578 78.501953 A 0.18751875 0.18751875 0 0 0 78.146484 78.498047 C 78.743612 78.04142 79.159978 77.429676 79.386719 76.679688 A 0.18751875 0.18751875 0 0 0 79.394531 76.625 L 79.394531 75.875 A 0.18751875 0.18751875 0 0 0 79.332031 75.734375 C 78.98878 75.427255 78.529601 75.193807 77.960938 75.021484 C 77.39333 74.849482 76.808222 74.761719 76.207031 74.761719 L 74.607422 74.761719 z M 74.607422 75.136719 L 76.207031 75.136719 C 76.772507 75.136719 77.321123 75.217575 77.853516 75.378906 C 78.357677 75.531683 78.732833 75.740521 79.019531 75.982422 L 79.019531 76.582031 C 78.812144 77.258422 78.450346 77.79406 77.917969 78.201172 C 77.383286 78.593204 76.778294 78.787109 76.082031 78.787109 L 74.607422 78.787109 C 74.039468 78.787109 73.604373 78.655187 73.277344 78.404297 C 72.96882 78.138285 72.820313 77.804135 72.820312 77.349609 L 72.820312 76.599609 C 72.820312 76.145443 72.973627 75.812594 73.300781 75.544922 C 73.629732 75.27578 74.056231 75.136719 74.607422 75.136719 z "
         id="path3686" />
    </g>
    <g
       id="g3688"
       style="opacity:1">
      <path
         style="color:#000000;font-style:normal;font-variant:normal;font-weight:500;font-stretch:normal;font-size:25px;line-height:1.25;font-family:'Bai Jamjuree';-inkscape-font-specification:'Bai Jamjuree Medium';font-variant-ligatures:normal;font-variant-position:normal;font-variant-caps:normal;font-variant-numeric:normal;font-variant-alternates:normal;font-variant-east-asian:normal;font-feature-settings:normal;font-variation-settings:normal;text-indent:0;text-align:start;text-decoration:none;text-decoration-line:none;text-decoration-style:solid;text-decoration-color:#000000;letter-spacing:normal;word-spacing:normal;text-transform:none;writing-mode:lr-tb;direction:ltr;text-orientation:mixed;dominant-baseline:auto;baseline-shift:baseline;text-anchor:start;white-space:normal;shape-padding:0;shape-margin:0;inline-size:0;clip-rule:nonzero;display:inline;overflow:visible;visibility:visible;isolation:auto;mix-blend-mode:normal;color-interpolation:sRGB;color-interpolation-filters:linearRGB;solid-color:#000000;solid-opacity:1;vector-effect:none;fill:#ffffff;fill-opacity:1;fill-rule:nonzero;stroke:none;stroke-width:0.375;stroke-linecap:round;stroke-linejoin:round;stroke-miterlimit:4;stroke-dasharray:none;stroke-dashoffset:0;stroke-opacity:1.0;color-rendering:auto;image-rendering:auto;shape-rendering:auto;text-rendering:auto;enable-background:accumulate;stop-color:#000000;stop-opacity:1;"
         d="m 88.932426,80.899997 c -1.366667,0 -2.475,-0.441667 -3.325,-1.325 -0.833333,-0.883333 -1.25,-2.05 -1.25,-3.5 v -2.95 c 0,-1 0.2,-1.883333 0.6,-2.65 0.4,-0.783333 0.958333,-1.383333 1.675,-1.8 0.733333,-0.433333 1.575,-0.65 2.525,-0.65 h 1.7 c 0.533333,0 1.058333,0.125 1.575,0.375 0.516667,0.25 0.933333,0.583333 1.25,1 v -6.2 h 2.35 v 17.5 h -2.225 v -1.775 c -0.366667,0.583333 -0.85,1.058333 -1.45,1.425 -0.6,0.366667 -1.2,0.55 -1.8,0.55 z m 1.725,-2.05 c 0.783333,0 1.466667,-0.316667 2.05,-0.95 0.583333,-0.65 0.908333,-1.416667 0.975,-2.3 v -2.825 c -0.116667,-0.816667 -0.425,-1.466667 -0.925,-1.95 -0.483333,-0.5 -1.066667,-0.75 -1.75,-0.75 h -1.675 c -0.783333,0 -1.425,0.291667 -1.925,0.875 -0.483333,0.566667 -0.725,1.325 -0.725,2.275 v 2.775 c 0,0.85 0.225,1.541667 0.675,2.075 0.466667,0.516667 1.05,0.775 1.75,0.775 z"
         id="path3690" />
      <path
         style="color:#000000;font-style:normal;font-variant:normal;font-weight:500;font-stretch:normal;font-size:25px;line-height:1.25;font-family:'Bai Jamjuree';-inkscape-font-specification:'Bai Jamjuree Medium';font-variant-ligatures:normal;font-variant-position:normal;font-variant-caps:normal;font-variant-numeric:normal;font-variant-alternates:normal;font-variant-east-asian:normal;font-feature-settings:normal;font-variation-settings:normal;text-indent:0;text-align:start;text-decoration:none;text-decoration-line:none;text-decoration-style:solid;text-decoration-color:#000000;letter-spacing:normal;word-spacing:normal;text-transform:none;writing-mode:lr-tb;direction:ltr;text-orientation:mixed;dominant-baseline:auto;baseline-shift:baseline;text-anchor:start;white-space:normal;shape-padding:0;shape-margin:0;inline-size:0;clip-rule:nonzero;display:inline;overflow:visible;visibility:visible;isolation:auto;mix-blend-mode:normal;color-interpolation:sRGB;color-interpolation-filters:linearRGB;solid-color:#000000;solid-opacity:1;vector-effect:none;fill:#000000;fill-opacity:1;fill-rule:nonzero;stroke:none;stroke-width:0.375;stroke-linecap:round;stroke-linejoin:round;stroke-miterlimit:4;stroke-dasharray:none;stroke-dashoffset:0;stroke-opacity:1.0;color-rendering:auto;image-rendering:auto;shape-rendering:auto;text-rendering:auto;enable-background:accumulate;stop-color:#000000;stop-opacity:1;"
         d="M 93.681641 63.011719 A 0.18751875 0.18751875 0 0 0 93.494141 63.199219 L 93.494141 69.015625 C 93.204454 68.72144 92.915071 68.424694 92.513672 68.230469 C 91.974236 67.969451 91.420052 67.837891 90.857422 67.837891 L 89.158203 67.837891 C 88.180378 67.837891 87.302551 68.06293 86.539062 68.513672 C 85.791361 68.948382 85.205518 69.578891 84.791016 70.390625 C 84.376117 71.186553 84.169922 72.100696 84.169922 73.125 L 84.169922 76.074219 C 84.169922 77.560138 84.602228 78.782542 85.470703 79.703125 A 0.18751875 0.18751875 0 0 0 85.472656 79.705078 C 86.357469 80.62459 87.524578 81.087891 88.931641 81.087891 L 90.556641 81.087891 C 91.194835 81.087891 91.831349 80.890933 92.455078 80.509766 C 92.934908 80.216536 93.281502 79.795439 93.619141 79.367188 L 93.619141 80.699219 A 0.18751875 0.18751875 0 0 0 93.806641 80.886719 L 96.033203 80.886719 A 0.18751875 0.18751875 0 0 0 96.220703 80.699219 L 96.220703 63.199219 A 0.18751875 0.18751875 0 0 0 96.033203 63.011719 L 93.681641 63.011719 z M 93.869141 63.386719 L 95.845703 63.386719 L 95.845703 80.511719 L 93.994141 80.511719 L 93.994141 78.925781 A 0.18751875 0.18751875 0 0 0 93.648438 78.826172 C 93.296873 79.385478 92.836516 79.836995 92.259766 80.189453 C 91.683495 80.541619 91.118446 80.712891 90.556641 80.712891 L 88.931641 80.712891 C 87.606431 80.712891 86.559048 80.293061 85.744141 79.447266 L 85.742188 79.445312 C 84.945235 78.599475 84.544922 77.487199 84.544922 76.074219 L 84.544922 73.125 C 84.544922 72.15 84.738512 71.299526 85.123047 70.5625 A 0.18751875 0.18751875 0 0 0 85.125 70.560547 C 85.510497 69.805615 86.04093 69.236514 86.726562 68.837891 A 0.18751875 0.18751875 0 0 0 86.728516 68.835938 C 87.431319 68.420644 88.236712 68.212891 89.158203 68.212891 L 90.857422 68.212891 C 91.361458 68.212891 91.857665 68.329377 92.351562 68.568359 C 92.844985 68.807112 93.23533 69.121734 93.533203 69.513672 A 0.18751875 0.18751875 0 0 0 93.869141 69.400391 L 93.869141 63.386719 z M 89.332031 69.886719 C 88.502155 69.886719 87.797112 70.208057 87.265625 70.828125 C 86.748719 71.434153 86.494141 72.242811 86.494141 73.224609 L 86.494141 76 C 86.494141 76.883088 86.733184 77.624457 87.214844 78.195312 A 0.18751875 0.18751875 0 0 0 87.21875 78.201172 C 87.716674 78.752445 88.361291 79.037109 89.107422 79.037109 L 90.658203 79.037109 C 91.492068 79.037109 92.234036 78.69144 92.845703 78.027344 A 0.18751875 0.18751875 0 0 0 92.847656 78.025391 C 93.456818 77.346611 93.799645 76.534096 93.869141 75.613281 A 0.18751875 0.18751875 0 0 0 93.869141 75.599609 L 93.869141 72.775391 A 0.18751875 0.18751875 0 0 0 93.867188 72.748047 C 93.746321 71.901978 93.422394 71.209779 92.892578 70.695312 C 92.892128 70.694847 92.891075 70.695777 92.890625 70.695312 C 92.376829 70.164479 91.736239 69.886719 91.007812 69.886719 L 89.332031 69.886719 z M 89.332031 70.261719 L 91.007812 70.261719 C 91.645414 70.261719 92.170403 70.486826 92.623047 70.955078 A 0.18751875 0.18751875 0 0 0 92.626953 70.958984 C 93.093249 71.409737 93.381523 72.014654 93.494141 72.796875 L 93.494141 75.589844 C 93.429602 76.432781 93.125656 77.153809 92.570312 77.773438 C 92.569846 77.773944 92.568826 77.772932 92.568359 77.773438 C 92.567938 77.773907 92.568781 77.774921 92.568359 77.775391 C 92.013872 78.376444 91.390103 78.662109 90.658203 78.662109 L 89.107422 78.662109 C 88.455172 78.662109 87.934757 78.430799 87.5 77.951172 C 87.082411 77.455547 86.869141 76.816172 86.869141 76 L 86.869141 73.224609 C 86.869141 72.306408 87.10102 71.599571 87.550781 71.072266 C 88.019067 70.526678 88.595909 70.261719 89.332031 70.261719 z "
         id="path3692" />
    </g>
    <g
       id="g3694"
       style="opacity:1">
      <path
         style="color:#000000;font-style:normal;font-variant:normal;font-weight:500;font-stretch:normal;font-size:25px;line-height:1.25;font-family:'Bai Jamjuree';-inkscape-font-specification:'Bai Jamjuree Medium';font-variant-ligatures:normal;font-variant-position:normal;font-variant-caps:normal;font-variant-numeric:normal;font-variant-alternates:normal;font-variant-east-asian:normal;font-feature-settings:normal;font-variation-settings:normal;text-indent:0;text-align:start;text-decoration:none;text-decoration-line:none;text-decoration-style:solid;text-decoration-color:#000000;letter-spacing:normal;word-spacing:normal;text-transform:none;writing-mode:lr-tb;direction:ltr;text-orientation:mixed;dominant-baseline:auto;baseline-shift:baseline;text-anchor:start;white-space:normal;shape-padding:0;shape-margin:0;inline-size:0;clip-rule:nonzero;display:inline;overflow:visible;visibility:visible;isolation:auto;mix-blend-mode:normal;color-interpolation:sRGB;color-interpolation-filters:linearRGB;solid-color:#000000;solid-opacity:1;vector-effect:none;fill:#ffffff;fill-opacity:1;fill-rule:nonzero;stroke:none;stroke-width:0.375;stroke-linecap:round;stroke-linejoin:round;stroke-miterlimit:4;stroke-dasharray:none;stroke-dashoffset:0;stroke-opacity:1.0;color-rendering:auto;image-rendering:auto;shape-rendering:auto;text-rendering:auto;enable-background:accumulate;stop-color:#000000;stop-opacity:1;"
         d="m 99.532421,68.224997 h 2.224999 v 1.825 c 0.33333,-0.55 0.81667,-1 1.45,-1.35 0.65,-0.35 1.325,-0.525 2.025,-0.525 h 1.3 v 2.075 h -1.3 c -1.01667,0 -1.83333,0.316667 -2.45,0.95 -0.61667,0.616667 -0.925,1.433333 -0.925,2.45 v 7.05 h -2.324999 z"
         id="path3696" />
      <path
         style="color:#000000;font-style:normal;font-variant:normal;font-weight:500;font-stretch:normal;font-size:25px;line-height:1.25;font-family:'Bai Jamjuree';-inkscape-font-specification:'Bai Jamjuree Medium';font-variant-ligatures:normal;font-variant-position:normal;font-variant-caps:normal;font-variant-numeric:normal;font-variant-alternates:normal;font-variant-east-asian:normal;font-feature-settings:normal;font-variation-settings:normal;text-indent:0;text-align:start;text-decoration:none;text-decoration-line:none;text-decoration-style:solid;text-decoration-color:#000000;letter-spacing:normal;word-spacing:normal;text-transform:none;writing-mode:lr-tb;direction:ltr;text-orientation:mixed;dominant-baseline:auto;baseline-shift:baseline;text-anchor:start;white-space:normal;shape-padding:0;shape-margin:0;inline-size:0;clip-rule:nonzero;display:inline;overflow:visible;visibility:visible;isolation:auto;mix-blend-mode:normal;color-interpolation:sRGB;color-interpolation-filters:linearRGB;solid-color:#000000;solid-opacity:1;vector-effect:none;fill:#000000;fill-opacity:1;fill-rule:nonzero;stroke:none;stroke-width:0.375;stroke-linecap:round;stroke-linejoin:round;stroke-miterlimit:4;stroke-dasharray:none;stroke-dashoffset:0;stroke-opacity:1.0;color-rendering:auto;image-rendering:auto;shape-rendering:auto;text-rendering:auto;enable-background:accumulate;stop-color:#000000;stop-opacity:1;"
         d="M 105.23242 67.988281 C 104.50117 67.988281 103.79388 68.171836 103.11914 68.535156 A 0.18751875 0.18751875 0 0 0 103.11719 68.535156 C 102.61005 68.815418 102.27206 69.219287 101.94531 69.628906 L 101.94531 68.224609 A 0.18751875 0.18751875 0 0 0 101.75781 68.037109 L 99.533203 68.037109 A 0.18751875 0.18751875 0 0 0 99.345703 68.224609 L 99.345703 80.699219 A 0.18751875 0.18751875 0 0 0 99.533203 80.886719 L 101.85742 80.886719 A 0.18751875 0.18751875 0 0 0 102.04492 80.699219 L 102.04492 73.650391 C 102.04492 72.671634 102.33383 71.912268 102.91406 71.332031 A 0.18751875 0.18751875 0 0 0 102.91602 71.330078 C 103.49675 70.733644 104.25469 70.4375 105.23242 70.4375 L 106.5332 70.4375 A 0.18751875 0.18751875 0 0 0 106.7207 70.25 L 106.7207 68.175781 A 0.18751875 0.18751875 0 0 0 106.5332 67.988281 L 105.23242 67.988281 z M 105.23242 68.363281 L 106.3457 68.363281 L 106.3457 70.0625 L 105.23242 70.0625 C 104.17745 70.0625 103.30286 70.398923 102.65039 71.068359 C 101.99729 71.721456 101.66992 72.595814 101.66992 73.650391 L 101.66992 80.511719 L 99.720703 80.511719 L 99.720703 68.412109 L 101.57031 68.412109 L 101.57031 70.050781 A 0.18751875 0.18751875 0 0 0 101.91797 70.146484 C 102.2327 69.627184 102.68908 69.201629 103.29688 68.865234 C 103.92214 68.528555 104.56367 68.363281 105.23242 68.363281 z "
         id="path3698" />
    </g>
  </g>
</svg>
